<mxfile host="app.diagrams.net" modified="2024-07-04T10:06:30.538Z" agent="Mozilla/5.0 (Windows NT 10.0; Win64; x64) AppleWebKit/537.36 (KHTML, like Gecko) Chrome/126.0.0.0 Safari/537.36" etag="MM3x9LOrJfbd7r3HY6A1" version="24.6.4" type="google">
  <diagram name="ページ1" id="gwchb9zPqyfXjJ5OUOtX">
    <mxGraphModel grid="1" page="1" gridSize="10" guides="1" tooltips="1" connect="1" arrows="1" fold="1" pageScale="1" pageWidth="827" pageHeight="1169" math="0" shadow="0">
      <root>
        <mxCell id="0" />
        <mxCell id="1" parent="0" />
        <mxCell id="4MiZDO4m8xZaIdFzG9Ns-1" value="Work9_1" style="rounded=0;whiteSpace=wrap;html=1;" vertex="1" parent="1">
          <mxGeometry x="10" y="1330" width="120" height="60" as="geometry" />
        </mxCell>
        <mxCell id="4MiZDO4m8xZaIdFzG9Ns-2" value="プレイヤー(抽象クラス)&lt;div&gt;&lt;hr&gt;名前&lt;/div&gt;&lt;div&gt;パス回数&lt;/div&gt;&lt;div&gt;&lt;hr&gt;カードを配る()&lt;/div&gt;&lt;div&gt;順番を指名する()&lt;/div&gt;&lt;div&gt;パス回数を数える()&lt;/div&gt;" style="rounded=0;whiteSpace=wrap;html=1;" vertex="1" parent="1">
          <mxGeometry x="120" y="1450" width="140" height="130" as="geometry" />
        </mxCell>
        <mxCell id="4MiZDO4m8xZaIdFzG9Ns-3" value="進行役&lt;div&gt;&lt;hr&gt;&lt;hr&gt;ゲームを準備する()&lt;/div&gt;&lt;div&gt;ゲームを開始する()&lt;/div&gt;&lt;div&gt;パスの確認する()&lt;/div&gt;&lt;div&gt;上がりを宣言する()&lt;/div&gt;" style="rounded=0;whiteSpace=wrap;html=1;" vertex="1" parent="1">
          <mxGeometry x="119.99999999999994" y="1640" width="134.95" height="120" as="geometry" />
        </mxCell>
        <mxCell id="4MiZDO4m8xZaIdFzG9Ns-4" value="手札&lt;div&gt;&lt;hr&gt;手札の枚数を数える()&lt;/div&gt;&lt;div&gt;&lt;hr&gt;カードを加える()&lt;/div&gt;&lt;div&gt;カードを引く()&lt;/div&gt;&lt;div&gt;カードを見る()&lt;/div&gt;&lt;div&gt;枚数を数える()&lt;/div&gt;&lt;div&gt;シャッフルする()&lt;/div&gt;" style="rounded=0;whiteSpace=wrap;html=1;" vertex="1" parent="1">
          <mxGeometry x="343.05" y="1620" width="136.95" height="140" as="geometry" />
        </mxCell>
        <mxCell id="4MiZDO4m8xZaIdFzG9Ns-5" value="テーブル(インタフェース)&lt;div&gt;&lt;hr&gt;&lt;hr&gt;カードを置く()&lt;/div&gt;&lt;div&gt;カードを見る()&lt;/div&gt;" style="rounded=0;whiteSpace=wrap;html=1;" vertex="1" parent="1">
          <mxGeometry x="555.05" y="1470" width="154.95" height="80" as="geometry" />
        </mxCell>
        <mxCell id="4MiZDO4m8xZaIdFzG9Ns-6" value="カード&lt;div&gt;&lt;hr&gt;数&lt;/div&gt;&lt;div&gt;スート&lt;br&gt;&lt;hr&gt;&lt;div&gt;数を見る()&lt;/div&gt;&lt;div&gt;スートを見る()&lt;/div&gt;&lt;/div&gt;" style="rounded=0;whiteSpace=wrap;html=1;" vertex="1" parent="1">
          <mxGeometry x="343.05" y="1820" width="95.05" height="140" as="geometry" />
        </mxCell>
        <mxCell id="4MiZDO4m8xZaIdFzG9Ns-7" value="" style="endArrow=none;html=1;rounded=0;entryX=1;entryY=1;entryDx=0;entryDy=0;exitX=0;exitY=0;exitDx=0;exitDy=0;" edge="1" parent="1" source="4MiZDO4m8xZaIdFzG9Ns-4" target="4MiZDO4m8xZaIdFzG9Ns-2">
          <mxGeometry width="50" height="50" relative="1" as="geometry">
            <mxPoint x="425.05" y="1620" as="sourcePoint" />
            <mxPoint x="475.05" y="1570" as="targetPoint" />
          </mxGeometry>
        </mxCell>
        <mxCell id="4MiZDO4m8xZaIdFzG9Ns-8" value="持っている" style="edgeLabel;html=1;align=center;verticalAlign=middle;resizable=0;points=[];" vertex="1" connectable="0" parent="4MiZDO4m8xZaIdFzG9Ns-7">
          <mxGeometry x="-0.0093" y="2" relative="1" as="geometry">
            <mxPoint x="24" y="-12" as="offset" />
          </mxGeometry>
        </mxCell>
        <mxCell id="4MiZDO4m8xZaIdFzG9Ns-9" value="" style="endArrow=none;html=1;rounded=0;exitX=0.5;exitY=1;exitDx=0;exitDy=0;" edge="1" parent="1">
          <mxGeometry width="50" height="50" relative="1" as="geometry">
            <mxPoint x="164.86" y="1580" as="sourcePoint" />
            <mxPoint x="165" y="1640" as="targetPoint" />
            <Array as="points" />
          </mxGeometry>
        </mxCell>
        <mxCell id="4MiZDO4m8xZaIdFzG9Ns-10" value="ゲームを進める" style="edgeLabel;html=1;align=center;verticalAlign=middle;resizable=0;points=[];" vertex="1" connectable="0" parent="4MiZDO4m8xZaIdFzG9Ns-9">
          <mxGeometry x="0.0378" y="-4" relative="1" as="geometry">
            <mxPoint x="49" y="-7" as="offset" />
          </mxGeometry>
        </mxCell>
        <mxCell id="4MiZDO4m8xZaIdFzG9Ns-11" value="" style="endArrow=none;html=1;rounded=0;exitX=0.25;exitY=1;exitDx=0;exitDy=0;entryX=0.364;entryY=0.013;entryDx=0;entryDy=0;entryPerimeter=0;" edge="1" parent="1" source="4MiZDO4m8xZaIdFzG9Ns-4" target="4MiZDO4m8xZaIdFzG9Ns-6">
          <mxGeometry width="50" height="50" relative="1" as="geometry">
            <mxPoint x="425.05" y="1620" as="sourcePoint" />
            <mxPoint x="377" y="1800" as="targetPoint" />
          </mxGeometry>
        </mxCell>
        <mxCell id="4MiZDO4m8xZaIdFzG9Ns-12" value="構成する" style="edgeLabel;html=1;align=center;verticalAlign=middle;resizable=0;points=[];" vertex="1" connectable="0" parent="4MiZDO4m8xZaIdFzG9Ns-11">
          <mxGeometry x="-0.0762" y="-4" relative="1" as="geometry">
            <mxPoint x="38" y="1" as="offset" />
          </mxGeometry>
        </mxCell>
        <mxCell id="4MiZDO4m8xZaIdFzG9Ns-13" value="" style="endArrow=none;html=1;rounded=0;entryX=0.5;entryY=0;entryDx=0;entryDy=0;" edge="1" parent="1" target="4MiZDO4m8xZaIdFzG9Ns-5">
          <mxGeometry width="50" height="50" relative="1" as="geometry">
            <mxPoint x="260" y="1470" as="sourcePoint" />
            <mxPoint x="475.05" y="1570" as="targetPoint" />
            <Array as="points" />
          </mxGeometry>
        </mxCell>
        <mxCell id="4MiZDO4m8xZaIdFzG9Ns-14" value="カードを順番に並べる" style="edgeLabel;html=1;align=center;verticalAlign=middle;resizable=0;points=[];" vertex="1" connectable="0" parent="4MiZDO4m8xZaIdFzG9Ns-13">
          <mxGeometry x="-0.0225" relative="1" as="geometry">
            <mxPoint x="-8" y="-10" as="offset" />
          </mxGeometry>
        </mxCell>
        <mxCell id="4MiZDO4m8xZaIdFzG9Ns-15" value="" style="endArrow=none;html=1;rounded=0;" edge="1" parent="1">
          <mxGeometry width="50" height="50" relative="1" as="geometry">
            <mxPoint x="140" y="1450" as="sourcePoint" />
            <mxPoint x="60" y="1420" as="targetPoint" />
            <Array as="points">
              <mxPoint x="140" y="1420" />
            </Array>
          </mxGeometry>
        </mxCell>
        <mxCell id="4MiZDO4m8xZaIdFzG9Ns-16" value="対戦する" style="edgeLabel;html=1;align=center;verticalAlign=middle;resizable=0;points=[];" vertex="1" connectable="0" parent="4MiZDO4m8xZaIdFzG9Ns-15">
          <mxGeometry x="0.7096" y="2" relative="1" as="geometry">
            <mxPoint as="offset" />
          </mxGeometry>
        </mxCell>
        <mxCell id="4MiZDO4m8xZaIdFzG9Ns-17" value="" style="endArrow=none;html=1;rounded=0;exitX=0;exitY=0.5;exitDx=0;exitDy=0;" edge="1" parent="1" source="4MiZDO4m8xZaIdFzG9Ns-2">
          <mxGeometry width="50" height="50" relative="1" as="geometry">
            <mxPoint x="85.05" y="1530" as="sourcePoint" />
            <mxPoint x="70" y="1430" as="targetPoint" />
            <Array as="points">
              <mxPoint x="70" y="1515" />
            </Array>
          </mxGeometry>
        </mxCell>
        <mxCell id="1hM3P7NG4RTN9P0JtOMG-1" value="&lt;div&gt;ジョーカー&lt;br&gt;&lt;/div&gt;&lt;div&gt;&lt;hr&gt;&lt;hr&gt;&lt;div&gt;数字の変更()&lt;/div&gt;&lt;div&gt;スートの変更()&lt;/div&gt;&lt;/div&gt;" style="rounded=0;whiteSpace=wrap;html=1;" vertex="1" parent="1">
          <mxGeometry x="560" y="1820" width="95.05" height="90" as="geometry" />
        </mxCell>
        <mxCell id="1hM3P7NG4RTN9P0JtOMG-2" value="" style="endArrow=none;html=1;rounded=0;entryX=0;entryY=0.25;entryDx=0;entryDy=0;exitX=0.996;exitY=0.151;exitDx=0;exitDy=0;exitPerimeter=0;" edge="1" parent="1" source="4MiZDO4m8xZaIdFzG9Ns-6" target="1hM3P7NG4RTN9P0JtOMG-1">
          <mxGeometry width="50" height="50" relative="1" as="geometry">
            <mxPoint x="440" y="1843" as="sourcePoint" />
            <mxPoint x="480" y="1760" as="targetPoint" />
          </mxGeometry>
        </mxCell>
        <mxCell id="1hM3P7NG4RTN9P0JtOMG-4" value="" style="triangle;whiteSpace=wrap;html=1;rotation=-180;" vertex="1" parent="1">
          <mxGeometry x="438.1" y="1830" width="20" height="20" as="geometry" />
        </mxCell>
        <mxCell id="1hM3P7NG4RTN9P0JtOMG-6" value="" style="endArrow=none;html=1;rounded=0;entryX=1;entryY=0.5;entryDx=0;entryDy=0;exitX=-0.002;exitY=0.568;exitDx=0;exitDy=0;exitPerimeter=0;" edge="1" parent="1" source="4MiZDO4m8xZaIdFzG9Ns-4" target="4MiZDO4m8xZaIdFzG9Ns-3">
          <mxGeometry width="50" height="50" relative="1" as="geometry">
            <mxPoint x="340" y="1700" as="sourcePoint" />
            <mxPoint x="182" y="1670" as="targetPoint" />
            <Array as="points" />
          </mxGeometry>
        </mxCell>
        <mxCell id="1hM3P7NG4RTN9P0JtOMG-7" value="持っている" style="edgeLabel;html=1;align=center;verticalAlign=middle;resizable=0;points=[];" connectable="0" vertex="1" parent="1hM3P7NG4RTN9P0JtOMG-6">
          <mxGeometry x="-0.0093" y="2" relative="1" as="geometry">
            <mxPoint x="2" y="-12" as="offset" />
          </mxGeometry>
        </mxCell>
        <mxCell id="1hM3P7NG4RTN9P0JtOMG-9" value="&lt;div&gt;ルール(インタフェース)&lt;hr&gt;&lt;hr&gt;テーブルに置けるカードを探す()&lt;/div&gt;" style="rounded=0;whiteSpace=wrap;html=1;" vertex="1" parent="1">
          <mxGeometry x="343.05" y="1480" width="190" height="70" as="geometry" />
        </mxCell>
        <mxCell id="1hM3P7NG4RTN9P0JtOMG-12" value="" style="endArrow=none;html=1;rounded=0;exitX=1;exitY=0;exitDx=0;exitDy=0;" edge="1" parent="1" source="4MiZDO4m8xZaIdFzG9Ns-4">
          <mxGeometry width="50" height="50" relative="1" as="geometry">
            <mxPoint x="290" y="1620" as="sourcePoint" />
            <mxPoint x="480" y="1550" as="targetPoint" />
          </mxGeometry>
        </mxCell>
        <mxCell id="1hM3P7NG4RTN9P0JtOMG-13" value="確認する" style="edgeLabel;html=1;align=center;verticalAlign=middle;resizable=0;points=[];" connectable="0" vertex="1" parent="1hM3P7NG4RTN9P0JtOMG-12">
          <mxGeometry x="0.0898" y="-4" relative="1" as="geometry">
            <mxPoint x="20" y="-11" as="offset" />
          </mxGeometry>
        </mxCell>
        <mxCell id="1hM3P7NG4RTN9P0JtOMG-14" value="" style="endArrow=none;html=1;rounded=0;entryX=1;entryY=0.5;entryDx=0;entryDy=0;" edge="1" parent="1" target="4MiZDO4m8xZaIdFzG9Ns-2">
          <mxGeometry width="50" height="50" relative="1" as="geometry">
            <mxPoint x="340" y="1515" as="sourcePoint" />
            <mxPoint x="490" y="1560" as="targetPoint" />
          </mxGeometry>
        </mxCell>
        <mxCell id="1hM3P7NG4RTN9P0JtOMG-16" value="参照する" style="edgeLabel;html=1;align=center;verticalAlign=middle;resizable=0;points=[];" connectable="0" vertex="1" parent="1hM3P7NG4RTN9P0JtOMG-14">
          <mxGeometry x="-0.22" y="1" relative="1" as="geometry">
            <mxPoint x="-9" y="-16" as="offset" />
          </mxGeometry>
        </mxCell>
        <mxCell id="1hM3P7NG4RTN9P0JtOMG-18" value="&lt;div&gt;OldMaidPlayer&lt;br&gt;&lt;hr&gt;&lt;/div&gt;&lt;div&gt;&lt;hr&gt;&lt;/div&gt;&lt;div&gt;手を出す()&lt;/div&gt;" style="rounded=0;whiteSpace=wrap;html=1;" vertex="1" parent="1">
          <mxGeometry x="233.05" y="1990" width="136.95" height="70" as="geometry" />
        </mxCell>
        <mxCell id="1hM3P7NG4RTN9P0JtOMG-19" value="&lt;div&gt;&lt;span style=&quot;background-color: initial;&quot;&gt;OldMaid&lt;/span&gt;Table&lt;br&gt;&lt;/div&gt;&lt;div&gt;&lt;hr&gt;&lt;/div&gt;&lt;div&gt;&lt;div&gt;&lt;hr&gt;&lt;/div&gt;&lt;div&gt;カードを捨てる()&lt;/div&gt;&lt;/div&gt;" style="rounded=0;whiteSpace=wrap;html=1;" vertex="1" parent="1">
          <mxGeometry x="423.05" y="1990" width="136.95" height="70" as="geometry" />
        </mxCell>
        <mxCell id="1hM3P7NG4RTN9P0JtOMG-20" value="&lt;div&gt;&lt;span style=&quot;background-color: initial;&quot;&gt;OldMaid&lt;/span&gt;Rule&lt;hr&gt;&lt;/div&gt;&lt;div&gt;&lt;hr&gt;同じ数字のカードを探す()&lt;br&gt;&lt;/div&gt;" style="rounded=0;whiteSpace=wrap;html=1;" vertex="1" parent="1">
          <mxGeometry x="613.05" y="1990" width="196.95" height="70" as="geometry" />
        </mxCell>
        <mxCell id="1hM3P7NG4RTN9P0JtOMG-23" value="" style="endArrow=none;html=1;rounded=0;" edge="1" parent="1">
          <mxGeometry width="50" height="50" relative="1" as="geometry">
            <mxPoint x="520" y="1989" as="sourcePoint" />
            <mxPoint x="520" y="1680" as="targetPoint" />
          </mxGeometry>
        </mxCell>
        <mxCell id="1hM3P7NG4RTN9P0JtOMG-24" value="" style="endArrow=none;html=1;rounded=0;exitX=0.25;exitY=0;exitDx=0;exitDy=0;" edge="1" parent="1" source="1hM3P7NG4RTN9P0JtOMG-18">
          <mxGeometry width="50" height="50" relative="1" as="geometry">
            <mxPoint x="420" y="1830" as="sourcePoint" />
            <mxPoint x="70" y="1840" as="targetPoint" />
            <Array as="points">
              <mxPoint x="267" y="1840" />
            </Array>
          </mxGeometry>
        </mxCell>
        <mxCell id="1hM3P7NG4RTN9P0JtOMG-25" value="" style="endArrow=classic;html=1;rounded=0;entryX=-0.023;entryY=0.848;entryDx=0;entryDy=0;entryPerimeter=0;" edge="1" parent="1" target="4MiZDO4m8xZaIdFzG9Ns-2">
          <mxGeometry width="50" height="50" relative="1" as="geometry">
            <mxPoint x="70" y="1840" as="sourcePoint" />
            <mxPoint x="70" y="1550" as="targetPoint" />
            <Array as="points">
              <mxPoint x="70" y="1560" />
            </Array>
          </mxGeometry>
        </mxCell>
        <mxCell id="1hM3P7NG4RTN9P0JtOMG-27" value="" style="endArrow=classic;html=1;rounded=0;entryX=0.806;entryY=1.019;entryDx=0;entryDy=0;entryPerimeter=0;" edge="1" parent="1" target="4MiZDO4m8xZaIdFzG9Ns-5">
          <mxGeometry width="50" height="50" relative="1" as="geometry">
            <mxPoint x="520" y="1680" as="sourcePoint" />
            <mxPoint x="420" y="1680" as="targetPoint" />
            <Array as="points">
              <mxPoint x="680" y="1680" />
            </Array>
          </mxGeometry>
        </mxCell>
        <mxCell id="1hM3P7NG4RTN9P0JtOMG-28" value="" style="endArrow=none;html=1;rounded=0;exitX=0.75;exitY=0;exitDx=0;exitDy=0;" edge="1" parent="1" source="1hM3P7NG4RTN9P0JtOMG-20">
          <mxGeometry width="50" height="50" relative="1" as="geometry">
            <mxPoint x="620" y="1690" as="sourcePoint" />
            <mxPoint x="440" y="1600" as="targetPoint" />
            <Array as="points">
              <mxPoint x="760" y="1600" />
            </Array>
          </mxGeometry>
        </mxCell>
        <mxCell id="1hM3P7NG4RTN9P0JtOMG-29" value="" style="endArrow=classic;html=1;rounded=0;entryX=0.51;entryY=1.004;entryDx=0;entryDy=0;entryPerimeter=0;" edge="1" parent="1" target="1hM3P7NG4RTN9P0JtOMG-9">
          <mxGeometry width="50" height="50" relative="1" as="geometry">
            <mxPoint x="440" y="1600" as="sourcePoint" />
            <mxPoint x="660" y="1610" as="targetPoint" />
          </mxGeometry>
        </mxCell>
      </root>
    </mxGraphModel>
  </diagram>
</mxfile>
